<svg id="Capa_1" enable-background="new 0 0 512 512" height="512" viewBox="0 0 512 512" width="512" xmlns="http://www.w3.org/2000/svg"><g><path d="m453.758 157.019c-29.054 3.449-58.107 6.135-87.161 8.064-8.276.55-14.117-7.834-10.919-15.487 5.702-13.644 8.685-28.707 8.27-44.513-1.512-57.625-48.778-104.274-106.417-105.072-60.341-.836-109.518 47.827-109.518 107.976 0 14.787 2.972 28.879 8.352 41.712 3.188 7.605-2.73 15.93-10.958 15.384-29.055-1.929-58.11-4.616-87.165-8.065-30.985-3.677-58.242 20.482-58.242 51.684 0 28.752 23.308 52.059 52.059 52.059h99.126c12.052 0 19.807 12.785 14.238 23.473l-76.292 146.418c-15.575 29.89-1.201 66.654 30.517 78.055 28.823 10.36 60.598-4.528 71.083-33.307l36.814-101.044c9.676-26.557 47.234-26.557 56.91 0l36.814 101.044c10.485 28.778 42.26 43.667 71.083 33.307 31.718-11.4 46.092-48.164 30.517-78.055l-76.292-146.416c-5.569-10.688 2.186-23.473 14.238-23.473h99.126c28.752 0 52.059-23.308 52.059-52.059 0-31.204-27.257-55.363-58.242-51.685z" fill="#986b54"/><g fill="#845c47"><path d="m199.215 374.355-36.814 101.045c-6.477 17.777-21.081 30.243-38.093 34.743 27.511 7.272 56.5-7.508 66.423-34.743l36.814-101.044c2.835-7.78 8.071-13.263 14.29-16.485-15.008-7.775-35.779-2.292-42.62 16.484z"/><path d="m335.619 105.082c.415 15.806-2.568 30.869-8.27 44.513-3.199 7.653 2.642 16.037 10.919 15.487 7.284-.483 14.568-1.015 21.853-1.594-4.437-2.728-6.701-8.485-4.441-13.893 5.702-13.644 8.685-28.707 8.27-44.513-1.514-57.624-48.78-104.273-106.419-105.071-5.339-.074-10.588.247-15.726.922 51.775 6.843 92.413 50.787 93.814 104.149z"/><path d="m453.758 157.018c-3.258.387-6.516.761-9.774 1.128 22.544 5.519 39.686 25.815 39.686 50.556 0 28.751-23.308 52.059-52.06 52.059h28.33c28.752 0 52.059-23.308 52.059-52.059.001-31.203-27.256-55.361-58.241-51.684z"/><path d="m346.577 284.235c-5.569-10.688 2.185-23.473 14.238-23.473h-28.33c-12.052 0-19.807 12.785-14.238 23.473l76.292 146.416c15.575 29.89 1.201 66.654-30.517 78.055h-.001c-1.546.556-3.101 1.024-4.66 1.436 10.526 2.784 21.972 2.524 32.99-1.436 31.718-11.4 46.092-48.164 30.517-78.055z"/></g><g><g><path d="m211.708 101.525c-4.268 0-7.726-3.459-7.726-7.726v-13.408c0-4.268 3.459-7.726 7.726-7.726 4.268 0 7.726 3.459 7.726 7.726v13.408c0 4.268-3.459 7.726-7.726 7.726z" fill="#365e7d"/></g><g><path d="m300.292 101.525c-4.268 0-7.726-3.459-7.726-7.726v-13.408c0-4.268 3.459-7.726 7.726-7.726s7.726 3.459 7.726 7.726v13.408c.001 4.268-3.458 7.726-7.726 7.726z" fill="#365e7d"/></g></g><g><path d="m256 162.601c-21.949 0-39.805-17.856-39.805-39.805 0-4.268 3.459-7.726 7.726-7.726s7.726 3.459 7.726 7.726c0 13.428 10.925 24.352 24.352 24.352 13.428 0 24.352-10.925 24.352-24.352 0-4.268 3.459-7.726 7.726-7.726s7.726 3.459 7.726 7.726c.001 21.949-17.855 39.805-39.803 39.805z" fill="#dd636e"/></g><g><g><path d="m76.875 267.887c-2.868 0-5.623-1.604-6.959-4.358l-12.263-25.293c-1.183-2.44-1-5.322.483-7.594l13.62-20.864-10.87-22.418c-1.184-2.441-1.001-5.324.482-7.596l14.651-22.44c2.333-3.574 7.12-4.579 10.694-2.245 3.572 2.333 4.578 7.121 2.245 10.694l-12.261 18.779 10.869 22.417c1.184 2.441 1.001 5.323-.482 7.595l-13.62 20.864 10.356 21.36c1.861 3.839.258 8.461-3.582 10.323-1.084.526-2.232.776-3.363.776z" fill="#b78b7a"/></g><g><path d="m435.609 266.887c-1.131 0-2.279-.25-3.365-.776-3.839-1.862-5.443-6.484-3.581-10.324l9.872-20.359-13.621-20.864c-1.483-2.272-1.666-5.154-.482-7.595l10.869-22.417-12.592-19.286c-2.333-3.573-1.327-8.361 2.245-10.694 3.573-2.33 8.36-1.327 10.694 2.245l14.982 22.947c1.483 2.272 1.666 5.155.482 7.596l-10.87 22.418 13.621 20.864c1.483 2.271 1.666 5.154.483 7.595l-11.779 24.293c-1.335 2.753-4.09 4.357-6.958 4.357z" fill="#b78b7a"/></g></g><g><g><path d="m169.381 458.859c-2.563 0-4.962-1.272-6.398-3.396l-14.885-21.995-26.554.086c-.008 0-.017 0-.025 0-2.564 0-4.962-1.272-6.399-3.396l-16.702-24.684c-2.391-3.534-1.465-8.338 2.069-10.729 3.534-2.39 8.337-1.465 10.729 2.069l14.394 21.275 26.554-.086h.025c2.564 0 4.961 1.272 6.398 3.396l14.885 21.995 25.122-.079h.025c4.256 0 7.712 3.443 7.725 7.702.013 4.267-3.435 7.737-7.702 7.751l-29.237.093c-.008-.002-.016-.002-.024-.002z" fill="#b78b7a"/></g><g><path d="m342.618 458.859c-.008 0-.016 0-.024 0l-29.142-.093c-4.268-.014-7.715-3.484-7.702-7.751.013-4.259 3.471-7.702 7.725-7.702h.025l25.026.079 14.885-21.995c1.437-2.125 3.835-3.396 6.398-3.396h.025l26.555.086 14.175-20.951c2.392-3.534 7.195-4.46 10.729-2.069s4.461 7.195 2.069 10.729l-16.483 24.36c-1.438 2.125-3.835 3.396-6.399 3.396-.008 0-.016 0-.025 0l-26.555-.086-14.885 21.995c-1.435 2.127-3.833 3.398-6.397 3.398z" fill="#b78b7a"/></g></g><g><path d="m256 231.458c-8.268 0-14.97-6.702-14.97-14.97v-6.672c0-8.268 6.702-14.97 14.97-14.97 8.268 0 14.97 6.702 14.97 14.97v6.672c0 8.267-6.703 14.97-14.97 14.97z" fill="#78c2a4"/></g><g><path d="m256 316.959c-8.268 0-14.97-6.702-14.97-14.97v-6.672c0-8.268 6.702-14.97 14.97-14.97 8.268 0 14.97 6.702 14.97 14.97v6.672c0 8.268-6.703 14.97-14.97 14.97z" fill="#78c2a4"/></g></g></svg>